<svg version="1.1" xmlns="http://www.w3.org/2000/svg" xmlns:xlink="http://www.w3.org/1999/xlink">

        <symbol id="user" viewBox="0 0 24 24">
            <path fill="none" d="M0 0h24v24H0z"/>
            <path d="M3 4.995C3 3.893 3.893 3 4.995 3h14.01C20.107 3 21 3.893 21 4.995v14.01A1.995 1.995 0 0 1 19.005 21H4.995A1.995 1.995 0 0 1 3 19.005V4.995zM6.357 18h11.49a6.992 6.992 0 0 0-5.745-3 6.992 6.992 0 0 0-5.745 3zM12 13a3.5 3.5 0 1 0 0-7 3.5 3.5 0 0 0 0 7z"/>
        </symbol>

        <symbol id="coin" viewBox="0 0 24 24">
            <path fill="none" d="M0 0h24v24H0z"/>
            <path d="M12 22C6.477 22 2 17.523 2 12S6.477 2 12 2s10 4.477 10 10-4.477 10-10 10zm-1-6v2h2v-2h1a2.5 2.5 0 0 0 2-4 2.5 2.5 0 0 0-2-4h-1V6h-2v2H8v8h3zm-1-3h4a.5.5 0 1 1 0 1h-4v-1zm0-3h4a.5.5 0 1 1 0 1h-4v-1z"/>
        </symbol>

        <symbol id="trophy" viewBox="0 0 24 24">
            <path fill="none" d="M0 0h24v24H0z"/>
            <path d="M13 16.938V19h5v2H6v-2h5v-2.062A8.001 8.001 0 0 1 4 9V3h16v6a8.001 8.001 0 0 1-7 7.938zM1 5h2v4H1V5zm20 0h2v4h-2V5z"/>
        </symbol>
</svg>
