<svg version="1.1" xmlns="http://www.w3.org/2000/svg" xmlns:xlink="http://www.w3.org/1999/xlink">

        <symbol id="user" viewBox="0 0 24 24">
            <path fill="none" d="M0 0h24v24H0z"/>
            <path d="M3 4.995C3 3.893 3.893 3 4.995 3h14.01C20.107 3 21 3.893 21 4.995v14.01A1.995 1.995 0 0 1 19.005 21H4.995A1.995 1.995 0 0 1 3 19.005V4.995zM6.357 18h11.49a6.992 6.992 0 0 0-5.745-3 6.992 6.992 0 0 0-5.745 3zM12 13a3.5 3.5 0 1 0 0-7 3.5 3.5 0 0 0 0 7z"/>
        </symbol>

        <symbol id="coin" viewBox="0 0 24 24">
            <path fill="none" d="M0 0h24v24H0z"/>
            <path d="M12 22C6.477 22 2 17.523 2 12S6.477 2 12 2s10 4.477 10 10-4.477 10-10 10zm-1-6v2h2v-2h1a2.5 2.5 0 0 0 2-4 2.5 2.5 0 0 0-2-4h-1V6h-2v2H8v8h3zm-1-3h4a.5.5 0 1 1 0 1h-4v-1zm0-3h4a.5.5 0 1 1 0 1h-4v-1z"/>
        </symbol>

        <symbol id="trophy" viewBox="0 0 24 24">
            <path fill="none" d="M0 0h24v24H0z"/>
            <path d="M13 16.938V19h5v2H6v-2h5v-2.062A8.001 8.001 0 0 1 4 9V3h16v6a8.001 8.001 0 0 1-7 7.938zM1 5h2v4H1V5zm20 0h2v4h-2V5z"/>
        </symbol>

        <symbol id="lock" viewBox="0 0 24 24">
            <path fill="none" d="M0 0h24v24H0z"/>
            <path d="M19 10h1a1 1 0 0 1 1 1v10a1 1 0 0 1-1 1H4a1 1 0 0 1-1-1V11a1 1 0 0 1 1-1h1V9a7 7 0 1 1 14 0v1zM5 12v8h14v-8H5zm6 2h2v4h-2v-4zm6-4V9A5 5 0 0 0 7 9v1h10z"/>
        </symbol>

        <symbol id="unlock" viewBox="0 0 24 24">
            <path fill="none" d="M0 0h24v24H0z"/>
            <path d="M7 10h13a1 1 0 0 1 1 1v10a1 1 0 0 1-1 1H4a1 1 0 0 1-1-1V11a1 1 0 0 1 1-1h1V9a7 7 0 0 1 13.262-3.131l-1.789.894A5 5 0 0 0 7 9v1zm-2 2v8h14v-8H5zm5 3h4v2h-4v-2z"/>
        </symbol>

        <symbol id="mail" viewBox="0 0 24 24">
            <path fill="none" d="M0 0h24v24H0z"/>
            <path d="M3 3h18a1 1 0 0 1 1 1v16a1 1 0 0 1-1 1H3a1 1 0 0 1-1-1V4a1 1 0 0 1 1-1zm17 4.238l-7.928 7.1L4 7.216V19h16V7.238zM4.511 5l7.55 6.662L19.502 5H4.511z"/>
        </symbol>

        <symbol id="location" viewBox="0 0 24 24">
            <path fill="none" d="M0 0h24v24H0z"/>
            <path d="M12 20.9l4.95-4.95a7 7 0 1 0-9.9 0L12 20.9zm0 2.828l-6.364-6.364a9 9 0 1 1 12.728 0L12 23.728zM12 13a2 2 0 1 0 0-4 2 2 0 0 0 0 4zm0 2a4 4 0 1 1 0-8 4 4 0 0 1 0 8z"/>
        </symbol>
</svg>
